<svg xmlns="http://www.w3.org/2000/svg" width="80" height="81" viewBox="0 0 80 81">
    <g fill="#ED8D81">
        <path d="M.998 55.932c.268.502.79.815 1.357.815h7.698V79.3c0 .853.69 1.544 1.54 1.544h57.27c.85 0 1.54-.691 1.54-1.544V56.747H78.1c.568 0 1.09-.313 1.357-.815.268-.503.239-1.112-.076-1.586l-9.237-13.902c-.286-.43-.767-.688-1.281-.688h-5.85c-.85 0-1.54.692-1.54 1.545s.69 1.545 1.54 1.545h5.026l7.184 10.812H50.29l-7.185-10.812h6.053c.85 0 1.54-.692 1.54-1.545s-.69-1.545-1.54-1.545H11.592c-.514 0-.995.259-1.28.688L1.074 54.346C.76 54.82.73 55.429.998 55.932zm12.134.815H30.99c.515 0 .996-.258 1.281-.688l6.417-9.657v31.352H13.132V56.747zm35.052-.688c.285.43.766.688 1.28.688h17.86v21.007H41.766V46.402l6.417 9.657zM12.416 42.846h24.935l-7.184 10.812H5.232l7.184-10.812zM31.304 4.477C30.007 2.57 27.767.5 24.157.5c-5.09 0-8.735 4.102-8.735 9.049 0 5.492 4.444 9.099 11.173 14.558 1.179.957 2.397 1.946 3.693 3.025.294.246.655.368 1.016.368s.722-.122 1.017-.368c1.295-1.079 2.514-2.068 3.693-3.025 6.728-5.46 11.173-9.066 11.173-14.558C47.187 4.6 43.537.5 38.45.5c-3.61 0-5.85 2.07-7.147 3.976zM44.01 9.55c0 3.979-3.977 7.206-9.998 12.092-.875.71-1.772 1.438-2.708 2.209-.936-.771-1.833-1.499-2.708-2.21-6.02-4.885-9.998-8.112-9.998-12.091 0-3.348 2.39-5.872 5.56-5.872 4.146 0 5.563 4.617 5.62 4.807.196.68.818 1.149 1.526 1.149.708 0 1.33-.469 1.526-1.149.014-.048 1.433-4.807 5.621-4.807 3.17 0 5.56 2.524 5.56 5.872zM59.11 32.627c.356 0 .711-.124.997-.372.821-.715 1.596-1.37 2.344-2.004 4.208-3.562 7.248-6.135 7.248-9.964 0-3.613-2.658-6.443-6.05-6.443-2.16 0-3.607 1.09-4.539 2.26-.93-1.17-2.378-2.26-4.537-2.26-3.393 0-6.05 2.83-6.05 6.443 0 3.829 3.039 6.402 7.246 9.964.75.634 1.524 1.29 2.345 2.004.285.248.64.372.996.372zm-7.563-12.34c0-1.666 1.06-3.438 3.026-3.438 2.23 0 3.043 2.717 3.08 2.846.183.65.777 1.102 1.456 1.102.682 0 1.278-.448 1.458-1.1.033-.117.846-2.848 3.081-2.848 1.965 0 3.025 1.772 3.025 3.438 0 2.441-2.327 4.412-6.184 7.676-.448.38-.906.768-1.379 1.172-.472-.404-.93-.792-1.378-1.172-3.857-3.264-6.185-5.235-6.185-7.676z"/>
        <ellipse cx="55.489" cy="40.509" rx="1.176" ry="1.174"/>
    </g>
</svg>
