<svg xmlns="http://www.w3.org/2000/svg" xmlns:xlink="http://www.w3.org/1999/xlink" width="64" height="92" viewBox="0 0 64 92">
    <defs>
        <path id="c1cah2nosa" d="M0 0L64 0 64 92 0 92z"/>
    </defs>
    <g fill="none" fill-rule="evenodd">
        <mask id="jxnvbs7tkb" fill="#fff">
            <use xlink:href="#c1cah2nosa"/>
        </mask>
        <path fill="#ED8D81" d="M50.34 22.322c-2.898-1.36-4.15-4.823-2.79-7.72 1.36-2.898 4.824-4.149 7.722-2.79 2.898 1.36 4.15 4.823 2.79 7.72-1.36 2.898-4.825 4.149-7.723 2.79M48.172 54.84c1.03-1.547 4.6-7.295 6.61-11.425 8.07-16.59 12.47-39.42 6.35-43.15l.005-.011c-.012-.005-.024-.006-.035-.01-.011-.007-.02-.016-.03-.022l-.006.012C54.34-2.242 39.186 15.393 31.2 32.026c-1.987 4.139-3.59 8.237-4.843 12.277l-9.197 1.638C7.963 47.579-.832 69.99.063 70.489c.018.01.04.016.057.029.446.354 1.702-.548 1.987-.862.013-.003 9.564-8.523 15.818-8.307 4.094.355 5.282 2.986 5.27 4.42-.041 4.696.054 9.478.06 9.792-.01.91.25 1.53.62 1.728.371.198 1.026-.019 1.732-.592.25-.19 4.057-3.088 7.71-6.038 1.117-.901 3.916-1.606 6.74 1.38 4.056 4.764 3.315 17.54 3.321 17.551-.068.419-.02 2.25.535 2.379.02.005.038.018.057.026.946.392 14.975-22.37 4.202-37.155" mask="url(#jxnvbs7tkb)"/>
    </g>
</svg>
