<svg xmlns="http://www.w3.org/2000/svg" width="39" height="39" viewBox="0 0 39 39">
    <defs>
        <filter id="vdp1d6eyta">
            <feColorMatrix in="SourceGraphic" values="0 0 0 0 0.364706 0 0 0 0 0.701961 0 0 0 0 0.058824 0 0 0 1.000000 0"/>
        </filter>
    </defs>
    <g fill="none" fill-rule="evenodd" filter="url(#vdp1d6eyta)" transform="translate(-1410 -1801)">
        <path fill="#000" fill-rule="nonzero" d="M1444.43 1801h-29.86c-2.52 0-4.57 2.05-4.57 4.57v29.86c0 2.52 2.05 4.57 4.57 4.57h29.86c2.52 0 4.57-2.05 4.57-4.57v-29.86c0-2.52-2.05-4.57-4.57-4.57zm1.523 34.43c0 .84-.683 1.523-1.523 1.523h-8.684v-12.416h4.707l.777-4.723h-5.484v-3.275c0-1.293.992-2.285 2.285-2.285h3.123v-4.723h-3.123c-3.879 0-7.006 3.142-7.006 7.021v3.262h-4.572v4.723h4.572v12.416h-16.455c-.84 0-1.523-.683-1.523-1.523v-29.86c0-.84.683-1.523 1.523-1.523h29.86c.84 0 1.523.683 1.523 1.523v29.86z"/>
    </g>
</svg>
