<svg xmlns="http://www.w3.org/2000/svg" width="39" height="39" viewBox="0 0 39 39">
    <defs>
        <filter id="guiniu94ta">
            <feColorMatrix in="SourceGraphic" values="0 0 0 0 0.933333 0 0 0 0 0.827451 0 0 0 0 0.172549 0 0 0 1.000000 0"/>
        </filter>
    </defs>
    <g fill="none" fill-rule="evenodd" filter="url(#guiniu94ta)" transform="translate(-1489 -1801)">
        <g fill="#000" fill-rule="nonzero" transform="translate(1489 1801)">
            <path d="M26.813 0H12.188C5.457 0 0 5.458 0 12.188v14.624C0 33.543 5.458 39 12.188 39h14.624C33.543 39 39 33.542 39 26.812V12.188C39 5.457 33.542 0 26.812 0zm8.53 26.813c0 4.704-3.826 8.53-8.53 8.53H12.188c-4.705 0-8.532-3.826-8.532-8.53V12.188c0-4.705 3.827-8.532 8.531-8.532h14.626c4.704 0 8.53 3.827 8.53 8.531v14.626z"/>
            <path d="M20 9c-5.523 0-10 4.477-10 10s4.477 10 10 10 10-4.477 10-10S25.523 9 20 9zm0 16.25c-3.445 0-6.25-2.805-6.25-6.25 0-3.447 2.805-6.25 6.25-6.25s6.25 2.803 6.25 6.25c0 3.445-2.805 6.25-6.25 6.25z"/>
            <circle cx="29.5" cy="9.5" r="1.5"/>
        </g>
    </g>
</svg>
