<svg xmlns="http://www.w3.org/2000/svg" xmlns:xlink="http://www.w3.org/1999/xlink" width="105" height="101" viewBox="0 0 105 101">
    <defs>
        <path id="5to9gtliva" d="M0 0.344L54.577 0.344 54.577 54 0 54z"/>
    </defs>
    <g fill="none" fill-rule="evenodd">
        <g>
            <g>
                <path fill="#ED8D81" d="M93.687 18.925c-2.4-1.153-3.436-4.09-2.31-6.545 1.127-2.457 3.995-3.517 6.395-2.365 2.4 1.153 3.436 4.089 2.31 6.546-1.126 2.456-3.995 3.516-6.395 2.364m-1.795 27.57c.853-1.312 3.81-6.185 5.474-9.686 6.683-14.066 10.326-33.422 5.258-36.584l.005-.01c-.01-.003-.02-.004-.03-.008-.008-.006-.015-.014-.024-.018l-.005.01C97-1.902 84.45 13.05 77.838 27.151c-1.646 3.51-2.974 6.985-4.01 10.41L66.21 38.95C58.594 40.34 51.31 59.341 52.052 59.762c.015.01.033.014.047.025.369.3 1.41-.465 1.646-.73.01-.003 7.92-7.227 13.098-7.043 3.391.3 4.375 2.531 4.365 3.747-.034 3.981.044 8.035.05 8.302-.008.77.207 1.297.513 1.464.308.169.85-.015 1.435-.501.207-.161 3.358-2.618 6.385-5.12.925-.763 3.243-1.361 5.581 1.171 3.359 4.038 2.746 14.87 2.75 14.88-.056.355-.017 1.907.443 2.017.017.004.032.015.048.022.784.332 12.4-18.966 3.48-31.502" transform="translate(-1468 -314) translate(1468 314)"/>
                <path fill="#68D3B0" d="M87.967 39.282s-7.56-1.774-6.918-3.063c.643-1.288 7.829-.297 7.829-.297s5.745.008 6.106-1.751c.361-1.76-5.481-2.243-5.481-2.243s-7.192-.345-7.237-1.399c-.045-1.054 6.691-1.502 6.691-1.502s3.928-.442 3.725-2.373c-.218-2.072-7.048-.72-8.742-.51-1.694.211-3.651.457-3.846-1.04-.184-1.418 3.283-2.82 5.851-3.835 2.862-1.133 2.353-1.96 2.353-1.96-.725-2.01-3.267-1.254-4.8-.678-1.535.576-6.137 2.73-7.698 3.214-1.047.325-3.891 1.044-5.647 1.482-.936.233-1.947.29-2.8-.135-14.427-7.198-34.267-3.872-46.495 14.99 0 0-11.386 17.463-2.41 19.6.406-.379.44 3.095 2.284 2.006 1.736-1.024 11.418-5.37 11.285-6.636-.318-8.112 8.194-17.613 19.564-17.675 6.33-.034 9.905 2.915 11.787 4.543 1.882 1.628 6.393 8.83 8.052 10.635 1.66 1.805 2.815 1.653 3.925 1.079 1.108-.574.888-2.177-.223-3.482-.695-.817-3.623-4.293-3.233-5.706.39-1.412 2.458-1.968 3.602-2.065 1.143-.097 11.52 2.213 11.52 2.213s5.052.73 5.57-1.028c.415-1.409-4.614-2.384-4.614-2.384" transform="translate(-1468 -314) translate(1468 314)"/>
                <g transform="translate(-1468 -314) translate(1468 314) translate(0 46)">
                    <mask id="sc5r943s4b" fill="#fff">
                        <use xlink:href="#5to9gtliva"/>
                    </mask>
                    <path fill="#5BB020" d="M54.334 27.986L36.124 3.36c-.414-.56-1.218-.687-1.789-.281L31.534 5.07 28.43.863c-.413-.561-1.218-.687-1.788-.28L22.06 3.839c-.571.406-.7 1.196-.287 1.755l3.103 4.21-4.11 2.92-3.103-4.209c-.412-.56-1.216-.687-1.786-.281l-4.584 3.257c-.57.406-.7 1.195-.286 1.755l3.104 4.209-4.11 2.92-3.103-4.208c-.413-.56-1.217-.686-1.788-.28L.528 19.143c-.57.404-.7 1.195-.286 1.755l3.104 4.207L.542 27.1c-.57.404-.7 1.195-.285 1.755l18.21 24.626c.412.56 1.217.687 1.788.281l33.794-24.02c.57-.406.699-1.196.285-1.756" mask="url(#sc5r943s4b)"/>
                </g>
                <path fill="#EED32B" d="M87.946 73.904c-.005-.01.782-9.776-3.477-14.648-2.296-2.045-4.436-1.151-5.363-.393-.805.659-2.418 2.2-2.42 2.2-1.294 7.89-9.659 17.142-19.995 16.335-6.213-.485-9.541-3.68-11.29-5.437-1.748-1.757-5.737-9.216-7.257-11.129-1.519-1.913-2.662-1.857-3.784-1.383-1.123.474-1.004 2.07.007 3.445.633.861 3.295 4.523 2.827 5.881-.47 1.359-2.532 1.736-3.66 1.738-1.128.003-11.168-3.122-11.168-3.122s-4.914-1.133-5.528.555c-.492 1.353 4.383 2.725 4.383 2.725s7.31 2.365 6.601 3.582c-.707 1.216-7.698-.349-7.698-.349s-5.636-.48-6.097 1.223c-.462 1.702 5.242 2.657 5.242 2.657s7.035.929 7.015 1.97c-.02 1.042-6.656.93-6.656.93s-3.88.113-3.798 2.031c.089 2.057 6.871 1.287 8.546 1.218 1.675-.069 3.61-.15 3.71 1.34.095 1.41-3.39 2.506-5.972 3.296-2.877.879-2.428 1.736-2.428 1.736.59 2.036 3.13 1.502 4.67 1.06 1.54-.441 6.186-2.185 7.747-2.534 1.048-.233 3.881-.708 5.63-.995.933-.152 1.928-.126 2.74.363 13.719 8.267 33.387 6.619 46.526-10.945 0 0 .735-.955.947-1.328-.106.095-.057-1.67 0-2.022z" transform="translate(-1468 -314) translate(1468 314)"/>
            </g>
        </g>
    </g>
</svg>
