<svg xmlns="http://www.w3.org/2000/svg" xmlns:xlink="http://www.w3.org/1999/xlink" width="83" height="83" viewBox="0 0 83 83">
    <defs>
        <path id="78dyhdns2a" d="M0 0L83 0 83 83 0 83z"/>
    </defs>
    <g fill="none" fill-rule="evenodd">
        <mask id="n6zzx5zg6b" fill="#fff">
            <use xlink:href="#78dyhdns2a"/>
        </mask>
        <path fill="#5BB020" d="M82.631 42.759L54.937 4.665c-.629-.865-1.852-1.062-2.72-.434l-4.26 3.082-4.72-6.51c-.629-.869-1.853-1.062-2.72-.434l-6.968 5.037c-.87.627-1.065 1.85-.436 2.715l4.718 6.51-6.25 4.52-4.719-6.512c-.626-.866-1.85-1.062-2.717-.435l-6.97 5.039c-.866.628-1.064 1.848-.435 2.715l4.72 6.51-6.25 4.52-4.719-6.511c-.628-.867-1.851-1.063-2.72-.436l-6.968 5.04c-.867.626-1.063 1.849-.435 2.715l4.72 6.51-4.264 3.083c-.868.624-1.063 1.848-.434 2.714l27.694 38.094c.628.867 1.852 1.063 2.72.436l51.393-37.158c.867-.628 1.064-1.85.434-2.716" mask="url(#n6zzx5zg6b)"/>
    </g>
</svg>
