<svg xmlns="http://www.w3.org/2000/svg" xmlns:xlink="http://www.w3.org/1999/xlink" width="182" height="66" viewBox="0 0 182 66">
    <defs>
        <path id="30scipxsna" d="M0 0.223L34.73 0.223 34.73 35 0 35z"/>
        <path id="6vdp3gjnvc" d="M0 64.5L182 64.5 182 0.5 0 0.5z"/>
    </defs>
    <g fill="none" fill-rule="evenodd">
        <path fill="#ED8D81" d="M59.743 13.389c-1.54-.724-2.205-2.569-1.482-4.112.722-1.543 2.562-2.21 4.102-1.485 1.54.724 2.204 2.568 1.482 4.111-.722 1.544-2.563 2.21-4.102 1.486m-1.152 17.32c.548-.825 2.445-3.886 3.512-6.086 4.287-8.836 6.624-20.995 3.373-22.982l.003-.006-.019-.005-.016-.011-.003.005C61.868.306 53.817 9.698 49.575 18.557c-1.055 2.205-1.907 4.388-2.573 6.54l-4.885.872c-4.887.872-9.56 12.81-9.084 13.074.01.005.022.009.03.015.237.19.905-.292 1.056-.458.007-.002 5.081-4.54 8.403-4.425 2.176.19 2.807 1.59 2.8 2.354-.021 2.501.029 5.048.032 5.216-.005.484.133.815.33.92.197.105.545-.01.92-.315.133-.101 2.155-1.645 4.096-3.216.593-.48 2.08-.856 3.58.735 2.155 2.537 1.761 9.342 1.765 9.348-.036.223-.011 1.198.283 1.266.011.003.021.01.03.014.504.21 7.956-11.914 2.233-19.789"/>
        <path fill="#68D3B0" d="M56.516 26.181s-4.819-1.14-4.41-1.968c.41-.83 4.99-.192 4.99-.192s3.664.005 3.894-1.125c.23-1.131-3.495-1.442-3.495-1.442s-4.584-.222-4.613-.9c-.029-.677 4.266-.965 4.266-.965s2.503-.284 2.374-1.526c-.139-1.331-4.493-.463-5.573-.327-1.08.135-2.328.293-2.452-.67-.117-.91 2.093-1.812 3.73-2.465 1.825-.728 1.5-1.26 1.5-1.26-.461-1.291-2.082-.806-3.06-.436-.978.37-3.912 1.756-4.907 2.067-.668.209-2.48.671-3.6.952-.597.15-1.241.187-1.785-.086-9.197-4.628-21.846-2.49-29.64 9.636 0 0-7.259 11.227-1.537 12.6.258-.244.28 1.99 1.456 1.29 1.107-.659 7.279-3.452 7.194-4.266-.203-5.215 5.223-11.323 12.472-11.362 4.036-.023 6.315 1.873 7.515 2.92 1.2 1.046 4.075 5.676 5.133 6.837 1.058 1.16 1.794 1.062 2.501.693.708-.369.567-1.399-.141-2.238-.444-.525-2.31-2.76-2.061-3.668.249-.908 1.567-1.265 2.296-1.328.729-.063 7.343 1.423 7.343 1.423s3.222.47 3.552-.66c.264-.907-2.942-1.534-2.942-1.534"/>
        <g transform="translate(0 30.5)">
            <mask id="bmpjbwf26b" fill="#fff">
                <use xlink:href="#30scipxsna"/>
            </mask>
            <path fill="#5BB020" d="M34.576 18.14L22.988 2.177c-.263-.363-.775-.446-1.138-.182l-1.783 1.291L18.092.56c-.263-.364-.775-.445-1.138-.182l-2.916 2.111c-.364.263-.445.775-.182 1.138l1.974 2.728-2.615 1.893-1.975-2.728c-.262-.363-.774-.445-1.137-.183L7.186 7.448c-.362.263-.445.774-.182 1.137l1.976 2.728-2.615 1.894-1.975-2.728c-.263-.363-.775-.445-1.139-.183L.336 12.408c-.363.262-.445.774-.182 1.138l1.975 2.727-1.784 1.292c-.363.262-.445.774-.182 1.137l11.588 15.961c.263.364.775.446 1.138.183l21.505-15.569c.363-.263.445-.775.182-1.138" mask="url(#bmpjbwf26b)"/>
        </g>
        <path fill="#EED32B" d="M55.822 50.521c-.299-.07-.324-1.067-.288-1.294-.003-.007.396-6.96-1.79-9.552-1.523-1.625-3.033-1.241-3.634-.751-.523.426-1.05.848-1.547 1.244l-.005.003c-.84 5.103-6.137 11.76-12.846 11.238-4.033-.313-6.194-2.38-7.328-3.517-1.135-1.136-3.725-5.96-4.711-7.197-.986-1.237-1.728-1.202-2.457-.895-.729.307-.651 1.339.005 2.229.41.557 2.139 2.924 1.835 3.803-.304.879-1.643 1.123-2.376 1.124-.732.002-7.25-2.02-7.25-2.02s-3.19-.732-3.588.36c-.319.875 2.846 1.763 2.846 1.763s4.744 1.53 4.285 2.316c-.46.786-4.998-.225-4.998-.225s-3.659-.31-3.958.79c-.299 1.101 3.403 1.719 3.403 1.719s4.567.6 4.554 1.274c-.013.674-4.32.601-4.32.601s-2.519.074-2.466 1.314c.058 1.33 4.46.832 5.548.788 1.087-.045 2.343-.097 2.408.866.062.913-2.201 1.621-3.877 2.132-1.868.569-1.576 1.123-1.576 1.123.383 1.317 2.032.971 3.032.686.999-.286 4.015-1.414 5.028-1.639.68-.151 2.52-.458 3.655-.644.605-.098 1.252-.081 1.778.235 8.906 5.347 21.673 4.281 30.201-7.079 0 0 .478-.618.615-.86l-.002.002c-.066.06-.165.066-.176.063"/>
        <path fill="#575756" d="M84.55 23.366c-.668-.996-1.735-1.503-2.818-1.503-2.516 0-4.299 2.429-4.299 5.137 0 2.866 1.768 5.137 4.3 5.137 1.369 0 2.467-.612 3.264-1.73l1.003.926c-1.003 1.486-2.468 2.167-4.268 2.167C78.5 33.5 76 30.757 76 27c0-3.634 2.388-6.5 5.732-6.5 1.529 0 3.026.577 3.981 1.94l-1.162.926zM98.54 27c0-2.848-1.848-5.137-4.54-5.137S89.46 24.152 89.46 27c0 2.848 1.848 5.137 4.54 5.137s4.54-2.289 4.54-5.137M88 27c0-3.74 2.513-6.5 6-6.5s6 2.76 6 6.5-2.513 6.5-6 6.5-6-2.76-6-6.5M102 20.5L104.052 20.5 107.992 29.907 108.025 29.907 111.997 20.5 114 20.5 114 32.5 112.621 32.5 112.621 22.432 112.588 22.432 108.419 32.5 107.582 32.5 103.412 22.432 103.379 22.432 103.379 32.5 102 32.5zM126 28.74c0 2.545-1.079 4.76-4 4.76-2.921 0-4-2.215-4-4.76V21.5h1.258v7.041c0 1.885.63 3.67 2.742 3.67 2.113 0 2.741-1.785 2.741-3.67V21.5H126v7.24zM129 20.5L130.761 20.5 137.572 30.466 137.605 30.466 137.605 20.5 139 20.5 139 32.5 137.24 32.5 130.429 22.534 130.396 22.534 130.396 32.5 129 32.5z"/>
        <mask id="jhfohncerd" fill="#fff">
            <use xlink:href="#6vdp3gjnvc"/>
        </mask>
        <path fill="#575756" d="M142 32.5L144 32.5 144 20.5 142 20.5zM148.357 31.178h2.585c2.617 0 4.604-1.39 4.604-4.678 0-3.288-1.987-4.678-4.604-4.678h-2.585v9.356zM147 20.5h4.394c2.246 0 5.606 1.576 5.606 6 0 4.424-3.36 6-5.606 6H147v-12zM164.564 22.33h-.032l-2.337 5.899h4.594l-2.225-5.898zm-.604-1.83h1.256l4.784 12h-1.558l-1.144-2.949h-5.627l-1.16 2.949H159l4.96-12zM173.357 31.178h2.585c2.617 0 4.604-1.39 4.604-4.678 0-3.288-1.987-4.678-4.604-4.678h-2.585v9.356zM172 20.5h4.394c2.246 0 5.606 1.576 5.606 6 0 4.424-3.36 6-5.606 6H172v-12zM83 40.92v7.443c0 .769-.102 1.468-.306 2.097-.205.628-.49 1.17-.853 1.624-.364.455-.803.804-1.317 1.049-.514.245-1.085.367-1.713.367-.837 0-1.58-.258-2.229-.774-.648-.515-1.162-1.23-1.54-2.146-.05-.104-.055-.211-.015-.322.04-.11.104-.194.194-.252l1.69-1.014c.09-.058.182-.067.277-.026.095.04.167.108.217.2.15.28.344.53.583.752.24.221.514.332.823.332.27 0 .484-.067.644-.201.16-.135.281-.298.366-.49.085-.193.142-.397.172-.613.03-.216.045-.406.045-.569V40.92c0-.116.035-.215.105-.297.07-.082.154-.123.254-.123h2.244c.11 0 .197.041.262.122.064.082.097.181.097.298M87 40.92c0-.116.036-.216.11-.297.072-.082.16-.123.265-.123h2.354c.104 0 .192.041.265.123.073.081.11.18.11.297v7.086c0 .455.065.831.196 1.129.131.297.294.53.488.7.194.169.401.288.622.358.22.07.42.105.598.105s.377-.035.598-.105c.22-.07.425-.19.614-.358.188-.17.348-.403.48-.7.13-.298.196-.674.196-1.129V40.92c0-.116.037-.216.11-.297.072-.082.16-.123.265-.123h2.354c.105 0 .193.041.266.123.072.081.109.18.109.297v7.086c0 .828-.118 1.58-.352 2.257-.235.677-.572 1.254-1.01 1.732-.438.48-.965.849-1.58 1.111-.616.263-1.3.394-2.05.394-.752 0-1.435-.131-2.05-.394-.616-.262-1.143-.632-1.58-1.11-.44-.479-.778-1.056-1.018-1.733-.24-.676-.36-1.429-.36-2.257V40.92zM105.063 53.5c-.838 0-1.623-.172-2.356-.515-.733-.344-1.374-.807-1.924-1.391-.55-.584-.985-1.271-1.304-2.06-.32-.791-.479-1.633-.479-2.525 0-.893.16-1.735.48-2.525.318-.79.753-1.48 1.303-2.07.55-.589 1.191-1.055 1.924-1.399.733-.343 1.518-.515 2.356-.515 1.152 0 2.154.257 3.008.773.853.515 1.547 1.225 2.081 2.13.052.09.065.197.04.317-.027.12-.082.21-.166.266l-1.885 1.322c-.083.058-.178.078-.282.06-.105-.017-.194-.07-.267-.163-.325-.434-.689-.784-1.092-1.047-.403-.263-.882-.395-1.437-.395-.398 0-.773.089-1.123.266-.351.178-.657.415-.919.713s-.469.644-.62 1.039c-.152.395-.228.804-.228 1.228 0 .435.076.847.228 1.236.151.39.358.73.62 1.022.262.292.568.527.919.704.35.178.725.266 1.123.266s.79-.08 1.178-.24c.387-.16.696-.424.927-.79.052-.092.057-.174.015-.25-.042-.074-.115-.11-.22-.11h-1.806c-.105 0-.194-.04-.267-.121-.073-.08-.11-.177-.11-.292v-2.043c0-.115.037-.212.11-.292.073-.08.162-.12.267-.12h5.403c.105 0 .197.036.275.111.079.075.123.174.133.3.021.195.032.433.032.713 0 .28-.016.57-.047.867-.074.79-.277 1.523-.613 2.198-.335.676-.767 1.26-1.295 1.752-.53.492-1.134.88-1.814 1.16-.682.28-1.404.42-2.168.42M114 40.92c0-.116.036-.216.11-.297.072-.082.16-.123.265-.123h2.354c.104 0 .192.041.265.123.073.081.11.18.11.297v7.086c0 .455.065.831.196 1.129.131.297.294.53.488.7.194.169.401.288.622.358.22.07.42.105.598.105s.377-.035.598-.105c.22-.07.425-.19.614-.358.188-.17.348-.403.48-.7.13-.298.196-.674.196-1.129V40.92c0-.116.037-.216.11-.297.072-.082.16-.123.265-.123h2.354c.105 0 .193.041.266.123.072.081.109.18.109.297v7.086c0 .828-.118 1.58-.352 2.257-.235.677-.572 1.254-1.01 1.732-.438.48-.965.849-1.58 1.111-.616.263-1.3.394-2.05.394-.752 0-1.435-.131-2.05-.394-.616-.262-1.143-.632-1.58-1.11-.44-.479-.778-1.056-1.018-1.733-.24-.676-.36-1.429-.36-2.257V40.92zM130.2 43.91v.688c0 .11.037.203.112.279.076.077.167.115.275.115h4.379c.108 0 .2.038.274.115.076.076.114.17.114.278v2.262c0 .11-.038.203-.114.28-.075.076-.166.114-.274.114h-4.379c-.108 0-.2.038-.275.115-.075.076-.112.17-.112.278v.623c0 .11.037.203.112.28.076.076.167.114.275.114h5.025c.108 0 .2.038.275.115.075.076.113.17.113.278v2.263c0 .109-.038.202-.113.278-.076.077-.167.115-.275.115h-8.224c-.108 0-.2-.038-.275-.115-.075-.076-.113-.169-.113-.278V40.893c0-.109.038-.202.113-.278.076-.077.167-.115.275-.115h8.224c.108 0 .2.038.275.115.075.076.113.17.113.278v2.23c0 .11-.038.202-.113.279-.076.076-.167.114-.275.114h-5.025c-.108 0-.2.039-.275.115-.075.077-.112.17-.112.279M146.625 43.516h-2.187c-.105 0-.193.039-.266.115-.073.077-.11.17-.11.28v8.195c0 .11-.033.203-.1.28-.069.076-.16.114-.274.114h-2.344c-.104 0-.193-.038-.266-.115-.073-.076-.11-.169-.11-.279V43.91c0-.11-.033-.202-.1-.279-.069-.076-.16-.115-.274-.115h-2.219c-.104 0-.193-.038-.266-.114-.073-.076-.109-.17-.109-.28v-2.228c0-.11.036-.202.11-.28.072-.075.16-.114.265-.114h8.25c.115 0 .206.039.274.115.067.077.101.17.101.279v2.229c0 .11-.034.203-.101.279-.068.076-.16.114-.274.114M151.2 43.91v.688c0 .11.037.203.112.279.076.077.167.115.275.115h4.379c.108 0 .2.038.274.115.076.076.114.17.114.278v2.262c0 .11-.038.203-.114.28-.075.076-.166.114-.274.114h-4.379c-.108 0-.2.038-.275.115-.075.076-.112.17-.112.278v.623c0 .11.037.203.112.28.076.076.167.114.275.114h5.025c.108 0 .2.038.275.115.075.076.113.17.113.278v2.263c0 .109-.038.202-.113.278-.076.077-.167.115-.275.115h-8.224c-.108 0-.2-.038-.275-.115-.075-.076-.113-.169-.113-.278V40.893c0-.109.038-.202.113-.278.076-.077.167-.115.275-.115h8.224c.108 0 .2.038.275.115.075.076.113.17.113.278v2.23c0 .11-.038.202-.113.279-.076.076-.167.114-.275.114h-5.025c-.108 0-.2.039-.275.115-.075.077-.112.17-.112.279" mask="url(#jhfohncerd)"/>
    </g>
</svg>
